<svg xmlns="http://www.w3.org/2000/svg" width="3500.0" height="2598.076211353316"><style>@import url('https://fonts.googleapis.com/css2?family=Roboto+Mono');
.mono { font-size: 30px; font-family: "Roboto Mono", monospace; text-anchor: middle; dominant-baseline: middle }
.boldmono { font-size: 30px; font-family: "Roboto Mono", monospace; font-weight: bold; text-anchor: middle; dominant-baseline: middle }
.bigmono { font-size: 100px; font-family: "Roboto Mono", monospace; text-anchor: middle; dominant-baseline: middle }
.point { font-size: 15px; font-family: "Roboto Mono", monospace; font-weight: bold; text-anchor: middle; dominant-baseline: middle }</style><g transform="translate(1500.0 0)"><polygon stroke="black" stroke-width="5" points="0 866.0254037844386 1000 866.0254037844386 500.0 0" fill="white"/><text class="mono" x="239.0" y="816.0254037844386">s</text><text class="mono" x="257.0" y="816.0254037844386">c</text><text class="mono" x="275.0" y="816.0254037844386">r</text><text class="mono" x="293.0" y="816.0254037844386">a</text><text class="mono" x="311.0" y="816.0254037844386">b</text><text class="mono" x="329.0" y="816.0254037844386">b</text><text class="mono" x="347.0" y="816.0254037844386">l</text><text class="mono" x="365.0" y="816.0254037844386">e</text><text class="mono" x="401.0" y="816.0254037844386">s</text><text class="mono" x="419.0" y="816.0254037844386">c</text><text class="mono" x="437.0" y="816.0254037844386">o</text><text class="mono" x="455.0" y="816.0254037844386">r</text><text class="mono" x="473.0" y="816.0254037844386">e</text><text class="mono" x="509.0" y="816.0254037844386">d</text><text class="mono" x="527.0" y="816.0254037844386">i</text><text class="mono" x="545.0" y="816.0254037844386">v</text><text class="mono" x="563.0" y="816.0254037844386">i</text><text class="mono" x="581.0" y="816.0254037844386">s</text><text class="mono" x="599.0" y="816.0254037844386">i</text><text class="mono" x="617.0" y="816.0254037844386">b</text><text class="mono" x="635.0" y="816.0254037844386">l</text><text class="mono" x="653.0" y="816.0254037844386">e</text><text class="mono" x="689.0" y="816.0254037844386">b</text><text class="mono" x="707.0" y="816.0254037844386">y</text><text class="mono" x="743.0" y="816.0254037844386">4</text><text class="mono" transform="rotate(120 468.8012701892219 154.03778516388132)" x="468.8012701892219" y="154.03778516388132">i</text><text class="mono" transform="rotate(120 459.8012701892219 169.62624243200122)" x="459.8012701892219" y="169.62624243200122">s</text><text class="mono" transform="rotate(120 441.8012701892219 200.803156968241)" x="441.8012701892219" y="200.803156968241">a</text><text class="mono" transform="rotate(120 423.8012701892219 231.9800715044808)" x="423.8012701892219" y="231.9800715044808">w</text><text class="mono" transform="rotate(120 414.8012701892219 247.5685287726007)" x="414.8012701892219" y="247.5685287726007">o</text><text class="mono" transform="rotate(120 405.8012701892219 263.1569860407206)" x="405.8012701892219" y="263.1569860407206">r</text><text class="mono" transform="rotate(120 396.8012701892219 278.7454433088405)" x="396.8012701892219" y="278.7454433088405">d</text><text class="mono" transform="rotate(120 378.8012701892219 309.9223578450803)" x="378.8012701892219" y="309.9223578450803">a</text><text class="mono" transform="rotate(120 369.8012701892219 325.5108151132002)" x="369.8012701892219" y="325.5108151132002">f</text><text class="mono" transform="rotate(120 360.8012701892219 341.0992723813201)" x="360.8012701892219" y="341.0992723813201">t</text><text class="mono" transform="rotate(120 351.80127018922195 356.68772964944)" x="351.80127018922195" y="356.68772964944">e</text><text class="mono" transform="rotate(120 342.80127018922195 372.27618691755987)" x="342.80127018922195" y="372.27618691755987">r</text><text class="mono" transform="rotate(120 324.80127018922195 403.45310145379966)" x="324.80127018922195" y="403.45310145379966">r</text><text class="mono" transform="rotate(120 315.80127018922195 419.04155872191956)" x="315.80127018922195" y="419.04155872191956">e</text><text class="mono" transform="rotate(120 306.80127018922195 434.63001599003945)" x="306.80127018922195" y="434.63001599003945">m</text><text class="mono" transform="rotate(120 297.80127018922195 450.21847325815935)" x="297.80127018922195" y="450.21847325815935">o</text><text class="mono" transform="rotate(120 288.80127018922195 465.80693052627925)" x="288.80127018922195" y="465.80693052627925">v</text><text class="mono" transform="rotate(120 279.80127018922195 481.39538779439914)" x="279.80127018922195" y="481.39538779439914">i</text><text class="mono" transform="rotate(120 270.80127018922195 496.98384506251904)" x="270.80127018922195" y="496.98384506251904">n</text><text class="mono" transform="rotate(120 261.80127018922195 512.5723023306389)" x="261.80127018922195" y="512.5723023306389">g</text><text class="mono" transform="rotate(120 243.80127018922198 543.7492168668787)" x="243.80127018922198" y="543.7492168668787">t</text><text class="mono" transform="rotate(120 234.80127018922198 559.3376741349987)" x="234.80127018922198" y="559.3376741349987">h</text><text class="mono" transform="rotate(120 225.80127018922198 574.9261314031185)" x="225.80127018922198" y="574.9261314031185">e</text><text class="mono" transform="rotate(120 207.80127018922198 606.1030459393583)" x="207.80127018922198" y="606.1030459393583">f</text><text class="mono" transform="rotate(120 198.801270189222 621.6915032074783)" x="198.801270189222" y="621.6915032074783">i</text><text class="mono" transform="rotate(120 189.801270189222 637.279960475598)" x="189.801270189222" y="637.279960475598">r</text><text class="mono" transform="rotate(120 180.801270189222 652.868417743718)" x="180.801270189222" y="652.868417743718">s</text><text class="mono" transform="rotate(120 171.801270189222 668.4568750118378)" x="171.801270189222" y="668.4568750118378">t</text><text class="mono" transform="rotate(120 153.801270189222 699.6337895480776)" x="153.801270189222" y="699.6337895480776">l</text><text class="mono" transform="rotate(120 144.801270189222 715.2222468161976)" x="144.801270189222" y="715.2222468161976">e</text><text class="mono" transform="rotate(120 135.801270189222 730.8107040843174)" x="135.801270189222" y="730.8107040843174">t</text><text class="mono" transform="rotate(120 126.80127018922201 746.3991613524374)" x="126.80127018922201" y="746.3991613524374">t</text><text class="mono" transform="rotate(120 117.80127018922201 761.9876186205572)" x="117.80127018922201" y="761.9876186205572">e</text><text class="mono" transform="rotate(120 108.80127018922204 777.5760758886772)" x="108.80127018922204" y="777.5760758886772">r</text><text class="mono" transform="rotate(240 774.1987298107781 574.9261314031185)" x="774.1987298107781" y="574.9261314031185">i</text><text class="mono" transform="rotate(240 765.1987298107781 559.3376741349986)" x="765.1987298107781" y="559.3376741349986">s</text><text class="mono" transform="rotate(240 747.1987298107781 528.1607595987588)" x="747.1987298107781" y="528.1607595987588">a</text><text class="mono" transform="rotate(240 729.1987298107781 496.98384506251904)" x="729.1987298107781" y="496.98384506251904">c</text><text class="mono" transform="rotate(240 720.1987298107781 481.39538779439914)" x="720.1987298107781" y="481.39538779439914">h</text><text class="mono" transform="rotate(240 711.1987298107781 465.80693052627925)" x="711.1987298107781" y="465.80693052627925">e</text><text class="mono" transform="rotate(240 702.1987298107781 450.21847325815935)" x="702.1987298107781" y="450.21847325815935">s</text><text class="mono" transform="rotate(240 693.1987298107781 434.63001599003945)" x="693.1987298107781" y="434.63001599003945">s</text><text class="mono" transform="rotate(240 675.1987298107781 403.45310145379966)" x="675.1987298107781" y="403.45310145379966">p</text><text class="mono" transform="rotate(240 666.1987298107781 387.8646441856798)" x="666.1987298107781" y="387.8646441856798">i</text><text class="mono" transform="rotate(240 657.1987298107781 372.2761869175599)" x="657.1987298107781" y="372.2761869175599">e</text><text class="mono" transform="rotate(240 648.1987298107781 356.68772964944003)" x="648.1987298107781" y="356.68772964944003">c</text><text class="mono" transform="rotate(240 639.1987298107781 341.09927238132013)" x="639.1987298107781" y="341.09927238132013">e</text><text class="bigmono" x="362.5" y="620.0">A</text><text class="bigmono" x="417.5" y="620.0">N</text><text class="bigmono" x="472.5" y="620.0">T</text><text class="bigmono" x="527.5" y="620.0">L</text><text class="bigmono" x="582.5" y="620.0">E</text><text class="bigmono" x="637.5" y="620.0">R</text><circle cx="162.801270189222" cy="684.0453322799578" r="10" fill="#f00a"/><text class="point" fill="white" x="162.801270189222" y="684.0453322799578">1</text><circle cx="347.0" cy="816.0254037844386" r="10" fill="#080a"/><text class="point" fill="white" x="347.0" y="816.0254037844386">12</text></g><g transform="translate(0.0 866.0254037844386) rotate(-120 500.0 577.3502691896257)"><polygon stroke="black" stroke-width="5" points="0 866.0254037844386 1000 866.0254037844386 500.0 0" fill="white"/><text class="mono" x="311.0" y="816.0254037844386">m</text><text class="mono" x="329.0" y="816.0254037844386">o</text><text class="mono" x="347.0" y="816.0254037844386">r</text><text class="mono" x="365.0" y="816.0254037844386">e</text><text class="mono" x="401.0" y="816.0254037844386">t</text><text class="mono" x="419.0" y="816.0254037844386">h</text><text class="mono" x="437.0" y="816.0254037844386">a</text><text class="mono" x="455.0" y="816.0254037844386">n</text><text class="mono" x="491.0" y="816.0254037844386">5</text><text class="mono" x="509.0" y="816.0254037844386">0</text><text class="mono" x="527.0" y="816.0254037844386">%</text><text class="mono" x="563.0" y="816.0254037844386">c</text><text class="mono" x="581.0" y="816.0254037844386">o</text><text class="mono" x="599.0" y="816.0254037844386">n</text><text class="mono" x="617.0" y="816.0254037844386">s</text><text class="mono" x="635.0" y="816.0254037844386">o</text><text class="mono" x="653.0" y="816.0254037844386">n</text><text class="mono" x="671.0" y="816.0254037844386">a</text><text class="mono" x="689.0" y="816.0254037844386">n</text><text class="mono" x="707.0" y="816.0254037844386">t</text><text class="mono" x="725.0" y="816.0254037844386">s</text><text class="mono" transform="rotate(120 486.8012701892219 122.86087062764153)" x="486.8012701892219" y="122.86087062764153">s</text><text class="mono" transform="rotate(120 477.8012701892219 138.44932789576143)" x="477.8012701892219" y="138.44932789576143">u</text><text class="mono" transform="rotate(120 468.8012701892219 154.03778516388132)" x="468.8012701892219" y="154.03778516388132">m</text><text class="mono" transform="rotate(120 450.8012701892219 185.21469970012112)" x="450.8012701892219" y="185.21469970012112">o</text><text class="mono" transform="rotate(120 441.8012701892219 200.803156968241)" x="441.8012701892219" y="200.803156968241">f</text><text class="mono" transform="rotate(120 423.8012701892219 231.9800715044808)" x="423.8012701892219" y="231.9800715044808">l</text><text class="mono" transform="rotate(120 414.8012701892219 247.5685287726007)" x="414.8012701892219" y="247.5685287726007">e</text><text class="mono" transform="rotate(120 405.8012701892219 263.1569860407206)" x="405.8012701892219" y="263.1569860407206">t</text><text class="mono" transform="rotate(120 396.8012701892219 278.7454433088405)" x="396.8012701892219" y="278.7454433088405">t</text><text class="mono" transform="rotate(120 387.8012701892219 294.3339005769604)" x="387.8012701892219" y="294.3339005769604">e</text><text class="mono" transform="rotate(120 378.8012701892219 309.9223578450803)" x="378.8012701892219" y="309.9223578450803">r</text><text class="mono" transform="rotate(120 369.8012701892219 325.5108151132002)" x="369.8012701892219" y="325.5108151132002">s</text><text class="mono" transform="rotate(120 351.80127018922195 356.68772964944)" x="351.80127018922195" y="356.68772964944">(</text><text class="mono" transform="rotate(120 342.80127018922195 372.27618691755987)" x="342.80127018922195" y="372.27618691755987">A</text><text class="mono" transform="rotate(120 333.80127018922195 387.86464418567977)" x="333.80127018922195" y="387.86464418567977">=</text><text class="mono" transform="rotate(120 324.80127018922195 403.45310145379966)" x="324.80127018922195" y="403.45310145379966">1</text><text class="mono" transform="rotate(120 315.80127018922195 419.04155872191956)" x="315.80127018922195" y="419.04155872191956">,</text><text class="mono" transform="rotate(120 297.80127018922195 450.21847325815935)" x="297.80127018922195" y="450.21847325815935">Z</text><text class="mono" transform="rotate(120 288.80127018922195 465.80693052627925)" x="288.80127018922195" y="465.80693052627925">=</text><text class="mono" transform="rotate(120 279.80127018922195 481.39538779439914)" x="279.80127018922195" y="481.39538779439914">2</text><text class="mono" transform="rotate(120 270.80127018922195 496.98384506251904)" x="270.80127018922195" y="496.98384506251904">6</text><text class="mono" transform="rotate(120 261.80127018922195 512.5723023306389)" x="261.80127018922195" y="512.5723023306389">)</text><text class="mono" transform="rotate(120 243.80127018922198 543.7492168668787)" x="243.80127018922198" y="543.7492168668787">i</text><text class="mono" transform="rotate(120 234.80127018922198 559.3376741349987)" x="234.80127018922198" y="559.3376741349987">s</text><text class="mono" transform="rotate(120 216.80127018922198 590.5145886712385)" x="216.80127018922198" y="590.5145886712385">e</text><text class="mono" transform="rotate(120 207.80127018922198 606.1030459393583)" x="207.80127018922198" y="606.1030459393583">i</text><text class="mono" transform="rotate(120 198.801270189222 621.6915032074783)" x="198.801270189222" y="621.6915032074783">t</text><text class="mono" transform="rotate(120 189.801270189222 637.279960475598)" x="189.801270189222" y="637.279960475598">h</text><text class="mono" transform="rotate(120 180.801270189222 652.868417743718)" x="180.801270189222" y="652.868417743718">e</text><text class="mono" transform="rotate(120 171.801270189222 668.4568750118378)" x="171.801270189222" y="668.4568750118378">r</text><text class="mono" transform="rotate(120 153.801270189222 699.6337895480776)" x="153.801270189222" y="699.6337895480776">4</text><text class="mono" transform="rotate(120 144.801270189222 715.2222468161976)" x="144.801270189222" y="715.2222468161976">1</text><text class="mono" transform="rotate(120 126.80127018922201 746.3991613524374)" x="126.80127018922201" y="746.3991613524374">o</text><text class="mono" transform="rotate(120 117.80127018922201 761.9876186205572)" x="117.80127018922201" y="761.9876186205572">r</text><text class="mono" transform="rotate(120 99.80127018922204 793.164533156797)" x="99.80127018922204" y="793.164533156797">8</text><text class="mono" transform="rotate(120 90.80127018922204 808.752990424917)" x="90.80127018922204" y="808.752990424917">6</text><text class="mono" transform="rotate(240 927.1987298107783 839.9299049611566)" x="927.1987298107783" y="839.9299049611566">i</text><text class="mono" transform="rotate(240 918.1987298107783 824.3414476930368)" x="918.1987298107783" y="824.3414476930368">s</text><text class="mono" transform="rotate(240 900.1987298107782 793.164533156797)" x="900.1987298107782" y="793.164533156797">a</text><text class="mono" transform="rotate(240 882.1987298107782 761.9876186205572)" x="882.1987298107782" y="761.9876186205572">w</text><text class="mono" transform="rotate(240 873.1987298107782 746.3991613524372)" x="873.1987298107782" y="746.3991613524372">o</text><text class="mono" transform="rotate(240 864.1987298107782 730.8107040843174)" x="864.1987298107782" y="730.8107040843174">r</text><text class="mono" transform="rotate(240 855.1987298107782 715.2222468161974)" x="855.1987298107782" y="715.2222468161974">d</text><text class="mono" transform="rotate(240 837.1987298107782 684.0453322799577)" x="837.1987298107782" y="684.0453322799577">a</text><text class="mono" transform="rotate(240 828.1987298107782 668.4568750118378)" x="828.1987298107782" y="668.4568750118378">f</text><text class="mono" transform="rotate(240 819.1987298107782 652.8684177437179)" x="819.1987298107782" y="652.8684177437179">t</text><text class="mono" transform="rotate(240 810.1987298107782 637.279960475598)" x="810.1987298107782" y="637.279960475598">e</text><text class="mono" transform="rotate(240 801.1987298107782 621.6915032074781)" x="801.1987298107782" y="621.6915032074781">r</text><text class="mono" transform="rotate(240 783.1987298107781 590.5145886712384)" x="783.1987298107781" y="590.5145886712384">r</text><text class="mono" transform="rotate(240 774.1987298107781 574.9261314031185)" x="774.1987298107781" y="574.9261314031185">e</text><text class="mono" transform="rotate(240 765.1987298107781 559.3376741349986)" x="765.1987298107781" y="559.3376741349986">p</text><text class="mono" transform="rotate(240 756.1987298107781 543.7492168668787)" x="756.1987298107781" y="543.7492168668787">l</text><text class="mono" transform="rotate(240 747.1987298107781 528.1607595987588)" x="747.1987298107781" y="528.1607595987588">a</text><text class="mono" transform="rotate(240 738.1987298107781 512.5723023306389)" x="738.1987298107781" y="512.5723023306389">c</text><text class="mono" transform="rotate(240 729.1987298107781 496.98384506251904)" x="729.1987298107781" y="496.98384506251904">i</text><text class="mono" transform="rotate(240 720.1987298107781 481.39538779439914)" x="720.1987298107781" y="481.39538779439914">n</text><text class="mono" transform="rotate(240 711.1987298107781 465.80693052627925)" x="711.1987298107781" y="465.80693052627925">g</text><text class="mono" transform="rotate(240 693.1987298107781 434.63001599003945)" x="693.1987298107781" y="434.63001599003945">t</text><text class="mono" transform="rotate(240 684.1987298107781 419.04155872191956)" x="684.1987298107781" y="419.04155872191956">h</text><text class="mono" transform="rotate(240 675.1987298107781 403.45310145379966)" x="675.1987298107781" y="403.45310145379966">e</text><text class="mono" transform="rotate(240 657.1987298107781 372.2761869175599)" x="657.1987298107781" y="372.2761869175599">f</text><text class="mono" transform="rotate(240 648.1987298107781 356.68772964944003)" x="648.1987298107781" y="356.68772964944003">i</text><text class="mono" transform="rotate(240 639.1987298107781 341.09927238132013)" x="639.1987298107781" y="341.09927238132013">r</text><text class="mono" transform="rotate(240 630.1987298107781 325.51081511320024)" x="630.1987298107781" y="325.51081511320024">s</text><text class="mono" transform="rotate(240 621.198729810778 309.92235784508034)" x="621.198729810778" y="309.92235784508034">t</text><text class="mono" transform="rotate(240 603.198729810778 278.74544330884055)" x="603.198729810778" y="278.74544330884055">l</text><text class="mono" transform="rotate(240 594.198729810778 263.15698604072065)" x="594.198729810778" y="263.15698604072065">e</text><text class="mono" transform="rotate(240 585.198729810778 247.56852877260079)" x="585.198729810778" y="247.56852877260079">t</text><text class="mono" transform="rotate(240 576.198729810778 231.9800715044809)" x="576.198729810778" y="231.9800715044809">t</text><text class="mono" transform="rotate(240 567.198729810778 216.391614236361)" x="567.198729810778" y="216.391614236361">e</text><text class="mono" transform="rotate(240 558.198729810778 200.80315696824113)" x="558.198729810778" y="200.80315696824113">r</text><text class="mono" transform="rotate(240 540.198729810778 169.62624243200133)" x="540.198729810778" y="169.62624243200133">w</text><text class="mono" transform="rotate(240 531.198729810778 154.03778516388144)" x="531.198729810778" y="154.03778516388144">i</text><text class="mono" transform="rotate(240 522.198729810778 138.44932789576154)" x="522.198729810778" y="138.44932789576154">t</text><text class="mono" transform="rotate(240 513.198729810778 122.86087062764165)" x="513.198729810778" y="122.86087062764165">h</text><text class="mono" transform="rotate(240 495.19872981077793 91.68395609140185)" x="495.19872981077793" y="91.68395609140185">T</text><text class="bigmono" x="362.5" y="620.0">S</text><text class="bigmono" x="417.5" y="620.0">Q</text><text class="bigmono" x="472.5" y="620.0">U</text><text class="bigmono" x="527.5" y="620.0">A</text><text class="bigmono" x="582.5" y="620.0">R</text><text class="bigmono" x="637.5" y="620.0">E</text><circle cx="720.1987298107781" cy="481.39538779439914" r="10" fill="#080a"/><text class="point" fill="white" x="720.1987298107781" y="481.39538779439914">10</text></g><g transform="translate(500.0 577.3502691896257) rotate(-60 500.0 577.3502691896257)"><polygon stroke="black" stroke-width="5" points="0 866.0254037844386 1000 866.0254037844386 500.0 0" fill="white"/><text class="mono" x="329.0" y="816.0254037844386">c</text><text class="mono" x="347.0" y="816.0254037844386">o</text><text class="mono" x="365.0" y="816.0254037844386">n</text><text class="mono" x="383.0" y="816.0254037844386">t</text><text class="mono" x="401.0" y="816.0254037844386">a</text><text class="mono" x="419.0" y="816.0254037844386">i</text><text class="mono" x="437.0" y="816.0254037844386">n</text><text class="mono" x="455.0" y="816.0254037844386">s</text><text class="mono" x="491.0" y="816.0254037844386">t</text><text class="mono" x="509.0" y="816.0254037844386">h</text><text class="mono" x="527.0" y="816.0254037844386">e</text><text class="mono" x="563.0" y="816.0254037844386">l</text><text class="mono" x="581.0" y="816.0254037844386">e</text><text class="mono" x="599.0" y="816.0254037844386">t</text><text class="mono" x="617.0" y="816.0254037844386">t</text><text class="mono" x="635.0" y="816.0254037844386">e</text><text class="mono" x="653.0" y="816.0254037844386">r</text><text class="mono" x="689.0" y="816.0254037844386">O</text><text class="mono" transform="rotate(120 378.8012701892219 309.9223578450803)" x="378.8012701892219" y="309.9223578450803">c</text><text class="mono" transform="rotate(120 369.8012701892219 325.5108151132002)" x="369.8012701892219" y="325.5108151132002">o</text><text class="mono" transform="rotate(120 360.8012701892219 341.0992723813201)" x="360.8012701892219" y="341.0992723813201">n</text><text class="mono" transform="rotate(120 351.80127018922195 356.68772964944)" x="351.80127018922195" y="356.68772964944">t</text><text class="mono" transform="rotate(120 342.80127018922195 372.27618691755987)" x="342.80127018922195" y="372.27618691755987">a</text><text class="mono" transform="rotate(120 333.80127018922195 387.86464418567977)" x="333.80127018922195" y="387.86464418567977">i</text><text class="mono" transform="rotate(120 324.80127018922195 403.45310145379966)" x="324.80127018922195" y="403.45310145379966">n</text><text class="mono" transform="rotate(120 315.80127018922195 419.04155872191956)" x="315.80127018922195" y="419.04155872191956">s</text><text class="mono" transform="rotate(120 297.80127018922195 450.21847325815935)" x="297.80127018922195" y="450.21847325815935">t</text><text class="mono" transform="rotate(120 288.80127018922195 465.80693052627925)" x="288.80127018922195" y="465.80693052627925">h</text><text class="mono" transform="rotate(120 279.80127018922195 481.39538779439914)" x="279.80127018922195" y="481.39538779439914">e</text><text class="mono" transform="rotate(120 261.80127018922195 512.5723023306389)" x="261.80127018922195" y="512.5723023306389">l</text><text class="mono" transform="rotate(120 252.80127018922195 528.1607595987589)" x="252.80127018922195" y="528.1607595987589">e</text><text class="mono" transform="rotate(120 243.80127018922198 543.7492168668787)" x="243.80127018922198" y="543.7492168668787">t</text><text class="mono" transform="rotate(120 234.80127018922198 559.3376741349987)" x="234.80127018922198" y="559.3376741349987">t</text><text class="mono" transform="rotate(120 225.80127018922198 574.9261314031185)" x="225.80127018922198" y="574.9261314031185">e</text><text class="mono" transform="rotate(120 216.80127018922198 590.5145886712385)" x="216.80127018922198" y="590.5145886712385">r</text><text class="mono" transform="rotate(120 198.801270189222 621.6915032074783)" x="198.801270189222" y="621.6915032074783">Q</text><text class="mono" transform="rotate(240 846.1987298107782 699.6337895480776)" x="846.1987298107782" y="699.6337895480776">s</text><text class="mono" transform="rotate(240 837.1987298107782 684.0453322799577)" x="837.1987298107782" y="684.0453322799577">c</text><text class="mono" transform="rotate(240 828.1987298107782 668.4568750118378)" x="828.1987298107782" y="668.4568750118378">r</text><text class="mono" transform="rotate(240 819.1987298107782 652.8684177437179)" x="819.1987298107782" y="652.8684177437179">a</text><text class="mono" transform="rotate(240 810.1987298107782 637.279960475598)" x="810.1987298107782" y="637.279960475598">b</text><text class="mono" transform="rotate(240 801.1987298107782 621.6915032074781)" x="801.1987298107782" y="621.6915032074781">b</text><text class="mono" transform="rotate(240 792.1987298107782 606.1030459393583)" x="792.1987298107782" y="606.1030459393583">l</text><text class="mono" transform="rotate(240 783.1987298107781 590.5145886712384)" x="783.1987298107781" y="590.5145886712384">e</text><text class="mono" transform="rotate(240 765.1987298107781 559.3376741349986)" x="765.1987298107781" y="559.3376741349986">s</text><text class="mono" transform="rotate(240 756.1987298107781 543.7492168668787)" x="756.1987298107781" y="543.7492168668787">c</text><text class="mono" transform="rotate(240 747.1987298107781 528.1607595987588)" x="747.1987298107781" y="528.1607595987588">o</text><text class="mono" transform="rotate(240 738.1987298107781 512.5723023306389)" x="738.1987298107781" y="512.5723023306389">r</text><text class="mono" transform="rotate(240 729.1987298107781 496.98384506251904)" x="729.1987298107781" y="496.98384506251904">e</text><text class="mono" transform="rotate(240 711.1987298107781 465.80693052627925)" x="711.1987298107781" y="465.80693052627925">d</text><text class="mono" transform="rotate(240 702.1987298107781 450.21847325815935)" x="702.1987298107781" y="450.21847325815935">i</text><text class="mono" transform="rotate(240 693.1987298107781 434.63001599003945)" x="693.1987298107781" y="434.63001599003945">v</text><text class="mono" transform="rotate(240 684.1987298107781 419.04155872191956)" x="684.1987298107781" y="419.04155872191956">i</text><text class="mono" transform="rotate(240 675.1987298107781 403.45310145379966)" x="675.1987298107781" y="403.45310145379966">s</text><text class="mono" transform="rotate(240 666.1987298107781 387.8646441856798)" x="666.1987298107781" y="387.8646441856798">i</text><text class="mono" transform="rotate(240 657.1987298107781 372.2761869175599)" x="657.1987298107781" y="372.2761869175599">b</text><text class="mono" transform="rotate(240 648.1987298107781 356.68772964944003)" x="648.1987298107781" y="356.68772964944003">l</text><text class="mono" transform="rotate(240 639.1987298107781 341.09927238132013)" x="639.1987298107781" y="341.09927238132013">e</text><text class="mono" transform="rotate(240 621.198729810778 309.92235784508034)" x="621.198729810778" y="309.92235784508034">b</text><text class="mono" transform="rotate(240 612.198729810778 294.33390057696045)" x="612.198729810778" y="294.33390057696045">y</text><text class="mono" transform="rotate(240 594.198729810778 263.15698604072065)" x="594.198729810778" y="263.15698604072065">3</text><text class="bigmono" x="362.5" y="620.0">K</text><text class="bigmono" x="417.5" y="620.0">N</text><text class="bigmono" x="472.5" y="620.0">I</text><text class="bigmono" x="527.5" y="620.0">G</text><text class="bigmono" x="582.5" y="620.0">H</text><text class="bigmono" x="637.5" y="620.0">T</text><circle cx="378.8012701892219" cy="309.9223578450803" r="10" fill="#f00a"/><text class="point" fill="white" x="378.8012701892219" y="309.9223578450803">9</text><circle cx="723.2050807568877" cy="590.7477288111819" r="10" fill="black"/><text class="point" fill="black" x="723.2050807568877" y="570.7477288111819">EXAMPLE</text></g><g transform="translate(1000.0 866.0254037844386) rotate(-120 500.0 577.3502691896257)"><polygon stroke="black" stroke-width="5" points="0 866.0254037844386 1000 866.0254037844386 500.0 0" fill="white"/><text class="mono" x="113.0" y="816.0254037844386">s</text><text class="mono" x="131.0" y="816.0254037844386">u</text><text class="mono" x="149.0" y="816.0254037844386">m</text><text class="mono" x="185.0" y="816.0254037844386">o</text><text class="mono" x="203.0" y="816.0254037844386">f</text><text class="mono" x="239.0" y="816.0254037844386">l</text><text class="mono" x="257.0" y="816.0254037844386">e</text><text class="mono" x="275.0" y="816.0254037844386">t</text><text class="mono" x="293.0" y="816.0254037844386">t</text><text class="mono" x="311.0" y="816.0254037844386">e</text><text class="mono" x="329.0" y="816.0254037844386">r</text><text class="mono" x="347.0" y="816.0254037844386">s</text><text class="mono" x="383.0" y="816.0254037844386">(</text><text class="mono" x="401.0" y="816.0254037844386">A</text><text class="mono" x="419.0" y="816.0254037844386">=</text><text class="mono" x="437.0" y="816.0254037844386">1</text><text class="mono" x="455.0" y="816.0254037844386">,</text><text class="mono" x="491.0" y="816.0254037844386">Z</text><text class="mono" x="509.0" y="816.0254037844386">=</text><text class="mono" x="527.0" y="816.0254037844386">2</text><text class="mono" x="545.0" y="816.0254037844386">6</text><text class="mono" x="563.0" y="816.0254037844386">)</text><text class="mono" x="599.0" y="816.0254037844386">i</text><text class="mono" x="617.0" y="816.0254037844386">s</text><text class="mono" x="653.0" y="816.0254037844386">e</text><text class="mono" x="671.0" y="816.0254037844386">i</text><text class="mono" x="689.0" y="816.0254037844386">t</text><text class="mono" x="707.0" y="816.0254037844386">h</text><text class="mono" x="725.0" y="816.0254037844386">e</text><text class="mono" x="743.0" y="816.0254037844386">r</text><text class="mono" x="779.0" y="816.0254037844386">8</text><text class="mono" x="797.0" y="816.0254037844386">5</text><text class="mono" x="833.0" y="816.0254037844386">o</text><text class="mono" x="851.0" y="816.0254037844386">r</text><text class="mono" x="887.0" y="816.0254037844386">8</text><text class="mono" x="905.0" y="816.0254037844386">6</text><text class="mono" transform="rotate(120 387.8012701892219 294.3339005769604)" x="387.8012701892219" y="294.3339005769604">i</text><text class="mono" transform="rotate(120 378.8012701892219 309.9223578450803)" x="378.8012701892219" y="309.9223578450803">s</text><text class="mono" transform="rotate(120 360.8012701892219 341.0992723813201)" x="360.8012701892219" y="341.0992723813201">j</text><text class="mono" transform="rotate(120 351.80127018922195 356.68772964944)" x="351.80127018922195" y="356.68772964944">u</text><text class="mono" transform="rotate(120 342.80127018922195 372.27618691755987)" x="342.80127018922195" y="372.27618691755987">s</text><text class="mono" transform="rotate(120 333.80127018922195 387.86464418567977)" x="333.80127018922195" y="387.86464418567977">t</text><text class="mono" transform="rotate(120 315.80127018922195 419.04155872191956)" x="315.80127018922195" y="419.04155872191956">4</text><text class="mono" transform="rotate(120 297.80127018922195 450.21847325815935)" x="297.80127018922195" y="450.21847325815935">l</text><text class="mono" transform="rotate(120 288.80127018922195 465.80693052627925)" x="288.80127018922195" y="465.80693052627925">e</text><text class="mono" transform="rotate(120 279.80127018922195 481.39538779439914)" x="279.80127018922195" y="481.39538779439914">t</text><text class="mono" transform="rotate(120 270.80127018922195 496.98384506251904)" x="270.80127018922195" y="496.98384506251904">t</text><text class="mono" transform="rotate(120 261.80127018922195 512.5723023306389)" x="261.80127018922195" y="512.5723023306389">e</text><text class="mono" transform="rotate(120 252.80127018922195 528.1607595987589)" x="252.80127018922195" y="528.1607595987589">r</text><text class="mono" transform="rotate(120 243.80127018922198 543.7492168668787)" x="243.80127018922198" y="543.7492168668787">s</text><text class="mono" transform="rotate(120 225.80127018922198 574.9261314031185)" x="225.80127018922198" y="574.9261314031185">l</text><text class="mono" transform="rotate(120 216.80127018922198 590.5145886712385)" x="216.80127018922198" y="590.5145886712385">o</text><text class="mono" transform="rotate(120 207.80127018922198 606.1030459393583)" x="207.80127018922198" y="606.1030459393583">n</text><text class="mono" transform="rotate(120 198.801270189222 621.6915032074783)" x="198.801270189222" y="621.6915032074783">g</text><text class="mono" transform="rotate(240 810.1987298107782 637.279960475598)" x="810.1987298107782" y="637.279960475598">c</text><text class="mono" transform="rotate(240 801.1987298107782 621.6915032074781)" x="801.1987298107782" y="621.6915032074781">o</text><text class="mono" transform="rotate(240 792.1987298107782 606.1030459393583)" x="792.1987298107782" y="606.1030459393583">n</text><text class="mono" transform="rotate(240 783.1987298107781 590.5145886712384)" x="783.1987298107781" y="590.5145886712384">t</text><text class="mono" transform="rotate(240 774.1987298107781 574.9261314031185)" x="774.1987298107781" y="574.9261314031185">a</text><text class="mono" transform="rotate(240 765.1987298107781 559.3376741349986)" x="765.1987298107781" y="559.3376741349986">i</text><text class="mono" transform="rotate(240 756.1987298107781 543.7492168668787)" x="756.1987298107781" y="543.7492168668787">n</text><text class="mono" transform="rotate(240 747.1987298107781 528.1607595987588)" x="747.1987298107781" y="528.1607595987588">s</text><text class="mono" transform="rotate(240 729.1987298107781 496.98384506251904)" x="729.1987298107781" y="496.98384506251904">t</text><text class="mono" transform="rotate(240 720.1987298107781 481.39538779439914)" x="720.1987298107781" y="481.39538779439914">h</text><text class="mono" transform="rotate(240 711.1987298107781 465.80693052627925)" x="711.1987298107781" y="465.80693052627925">e</text><text class="mono" transform="rotate(240 693.1987298107781 434.63001599003945)" x="693.1987298107781" y="434.63001599003945">l</text><text class="mono" transform="rotate(240 684.1987298107781 419.04155872191956)" x="684.1987298107781" y="419.04155872191956">e</text><text class="mono" transform="rotate(240 675.1987298107781 403.45310145379966)" x="675.1987298107781" y="403.45310145379966">t</text><text class="mono" transform="rotate(240 666.1987298107781 387.8646441856798)" x="666.1987298107781" y="387.8646441856798">t</text><text class="mono" transform="rotate(240 657.1987298107781 372.2761869175599)" x="657.1987298107781" y="372.2761869175599">e</text><text class="mono" transform="rotate(240 648.1987298107781 356.68772964944003)" x="648.1987298107781" y="356.68772964944003">r</text><text class="mono" transform="rotate(240 630.1987298107781 325.51081511320024)" x="630.1987298107781" y="325.51081511320024">T</text><text class="bigmono" x="417.5" y="620.0">M</text><text class="bigmono" x="472.5" y="620.0">O</text><text class="bigmono" x="527.5" y="620.0">O</text><text class="bigmono" x="582.5" y="620.0">N</text><circle cx="657.1987298107781" cy="372.2761869175599" r="10" fill="#f00a"/><text class="point" fill="white" x="657.1987298107781" y="372.2761869175599">3</text><circle cx="756.1987298107781" cy="543.7492168668787" r="10" fill="#080a"/><text class="point" fill="white" x="756.1987298107781" y="543.7492168668787">4</text><circle cx="671.0" cy="816.0254037844386" r="10" fill="#080a"/><text class="point" fill="white" x="671.0" y="816.0254037844386">6</text></g><g transform="translate(1500.0 577.3502691896257) rotate(60 500.0 577.3502691896257)"><polygon stroke="black" stroke-width="5" points="0 866.0254037844386 1000 866.0254037844386 500.0 0" fill="white"/><text class="mono" x="311.0" y="816.0254037844386">c</text><text class="mono" x="329.0" y="816.0254037844386">o</text><text class="mono" x="347.0" y="816.0254037844386">n</text><text class="mono" x="365.0" y="816.0254037844386">t</text><text class="mono" x="383.0" y="816.0254037844386">a</text><text class="mono" x="401.0" y="816.0254037844386">i</text><text class="mono" x="419.0" y="816.0254037844386">n</text><text class="mono" x="437.0" y="816.0254037844386">s</text><text class="mono" x="473.0" y="816.0254037844386">t</text><text class="mono" x="491.0" y="816.0254037844386">h</text><text class="mono" x="509.0" y="816.0254037844386">e</text><text class="mono" x="545.0" y="816.0254037844386">l</text><text class="mono" x="563.0" y="816.0254037844386">e</text><text class="mono" x="581.0" y="816.0254037844386">t</text><text class="mono" x="599.0" y="816.0254037844386">t</text><text class="mono" x="617.0" y="816.0254037844386">e</text><text class="mono" x="635.0" y="816.0254037844386">r</text><text class="mono" x="671.0" y="816.0254037844386">M</text><text class="mono" transform="rotate(120 414.8012701892219 247.5685287726007)" x="414.8012701892219" y="247.5685287726007">c</text><text class="mono" transform="rotate(120 405.8012701892219 263.1569860407206)" x="405.8012701892219" y="263.1569860407206">o</text><text class="mono" transform="rotate(120 396.8012701892219 278.7454433088405)" x="396.8012701892219" y="278.7454433088405">n</text><text class="mono" transform="rotate(120 387.8012701892219 294.3339005769604)" x="387.8012701892219" y="294.3339005769604">t</text><text class="mono" transform="rotate(120 378.8012701892219 309.9223578450803)" x="378.8012701892219" y="309.9223578450803">a</text><text class="mono" transform="rotate(120 369.8012701892219 325.5108151132002)" x="369.8012701892219" y="325.5108151132002">i</text><text class="mono" transform="rotate(120 360.8012701892219 341.0992723813201)" x="360.8012701892219" y="341.0992723813201">n</text><text class="mono" transform="rotate(120 351.80127018922195 356.68772964944)" x="351.80127018922195" y="356.68772964944">s</text><text class="mono" transform="rotate(120 333.80127018922195 387.86464418567977)" x="333.80127018922195" y="387.86464418567977">t</text><text class="mono" transform="rotate(120 324.80127018922195 403.45310145379966)" x="324.80127018922195" y="403.45310145379966">h</text><text class="mono" transform="rotate(120 315.80127018922195 419.04155872191956)" x="315.80127018922195" y="419.04155872191956">e</text><text class="mono" transform="rotate(120 297.80127018922195 450.21847325815935)" x="297.80127018922195" y="450.21847325815935">s</text><text class="mono" transform="rotate(120 288.80127018922195 465.80693052627925)" x="288.80127018922195" y="465.80693052627925">u</text><text class="mono" transform="rotate(120 279.80127018922195 481.39538779439914)" x="279.80127018922195" y="481.39538779439914">b</text><text class="mono" transform="rotate(120 270.80127018922195 496.98384506251904)" x="270.80127018922195" y="496.98384506251904">s</text><text class="mono" transform="rotate(120 261.80127018922195 512.5723023306389)" x="261.80127018922195" y="512.5723023306389">t</text><text class="mono" transform="rotate(120 252.80127018922195 528.1607595987589)" x="252.80127018922195" y="528.1607595987589">r</text><text class="mono" transform="rotate(120 243.80127018922198 543.7492168668787)" x="243.80127018922198" y="543.7492168668787">i</text><text class="mono" transform="rotate(120 234.80127018922198 559.3376741349987)" x="234.80127018922198" y="559.3376741349987">n</text><text class="mono" transform="rotate(120 225.80127018922198 574.9261314031185)" x="225.80127018922198" y="574.9261314031185">g</text><text class="mono" transform="rotate(120 207.80127018922198 606.1030459393583)" x="207.80127018922198" y="606.1030459393583">A</text><text class="mono" transform="rotate(120 198.801270189222 621.6915032074783)" x="198.801270189222" y="621.6915032074783">N</text><text class="mono" transform="rotate(240 882.1987298107782 761.9876186205572)" x="882.1987298107782" y="761.9876186205572">c</text><text class="mono" transform="rotate(240 873.1987298107782 746.3991613524372)" x="873.1987298107782" y="746.3991613524372">o</text><text class="mono" transform="rotate(240 864.1987298107782 730.8107040843174)" x="864.1987298107782" y="730.8107040843174">n</text><text class="mono" transform="rotate(240 855.1987298107782 715.2222468161974)" x="855.1987298107782" y="715.2222468161974">t</text><text class="mono" transform="rotate(240 846.1987298107782 699.6337895480776)" x="846.1987298107782" y="699.6337895480776">a</text><text class="mono" transform="rotate(240 837.1987298107782 684.0453322799577)" x="837.1987298107782" y="684.0453322799577">i</text><text class="mono" transform="rotate(240 828.1987298107782 668.4568750118378)" x="828.1987298107782" y="668.4568750118378">n</text><text class="mono" transform="rotate(240 819.1987298107782 652.8684177437179)" x="819.1987298107782" y="652.8684177437179">s</text><text class="mono" transform="rotate(240 801.1987298107782 621.6915032074781)" x="801.1987298107782" y="621.6915032074781">3</text><text class="mono" transform="rotate(240 783.1987298107781 590.5145886712384)" x="783.1987298107781" y="590.5145886712384">v</text><text class="mono" transform="rotate(240 774.1987298107781 574.9261314031185)" x="774.1987298107781" y="574.9261314031185">o</text><text class="mono" transform="rotate(240 765.1987298107781 559.3376741349986)" x="765.1987298107781" y="559.3376741349986">w</text><text class="mono" transform="rotate(240 756.1987298107781 543.7492168668787)" x="756.1987298107781" y="543.7492168668787">e</text><text class="mono" transform="rotate(240 747.1987298107781 528.1607595987588)" x="747.1987298107781" y="528.1607595987588">l</text><text class="mono" transform="rotate(240 738.1987298107781 512.5723023306389)" x="738.1987298107781" y="512.5723023306389">s</text><text class="mono" transform="rotate(240 720.1987298107781 481.39538779439914)" x="720.1987298107781" y="481.39538779439914">w</text><text class="mono" transform="rotate(240 711.1987298107781 465.80693052627925)" x="711.1987298107781" y="465.80693052627925">h</text><text class="mono" transform="rotate(240 702.1987298107781 450.21847325815935)" x="702.1987298107781" y="450.21847325815935">e</text><text class="mono" transform="rotate(240 693.1987298107781 434.63001599003945)" x="693.1987298107781" y="434.63001599003945">r</text><text class="mono" transform="rotate(240 684.1987298107781 419.04155872191956)" x="684.1987298107781" y="419.04155872191956">e</text><text class="mono" transform="rotate(240 666.1987298107781 387.8646441856798)" x="666.1987298107781" y="387.8646441856798">2</text><text class="mono" transform="rotate(240 648.1987298107781 356.68772964944003)" x="648.1987298107781" y="356.68772964944003">o</text><text class="mono" transform="rotate(240 639.1987298107781 341.09927238132013)" x="639.1987298107781" y="341.09927238132013">f</text><text class="mono" transform="rotate(240 621.198729810778 309.92235784508034)" x="621.198729810778" y="309.92235784508034">t</text><text class="mono" transform="rotate(240 612.198729810778 294.33390057696045)" x="612.198729810778" y="294.33390057696045">h</text><text class="mono" transform="rotate(240 603.198729810778 278.74544330884055)" x="603.198729810778" y="278.74544330884055">e</text><text class="mono" transform="rotate(240 594.198729810778 263.15698604072065)" x="594.198729810778" y="263.15698604072065">m</text><text class="mono" transform="rotate(240 576.198729810778 231.9800715044809)" x="576.198729810778" y="231.9800715044809">a</text><text class="mono" transform="rotate(240 567.198729810778 216.391614236361)" x="567.198729810778" y="216.391614236361">r</text><text class="mono" transform="rotate(240 558.198729810778 200.80315696824113)" x="558.198729810778" y="200.80315696824113">e</text><text class="mono" transform="rotate(240 540.198729810778 169.62624243200133)" x="540.198729810778" y="169.62624243200133">E</text><text class="mono" transform="rotate(240 531.198729810778 154.03778516388144)" x="531.198729810778" y="154.03778516388144">s</text><text class="bigmono" x="307.5" y="620.0">A</text><text class="bigmono" x="362.5" y="620.0">R</text><text class="bigmono" x="417.5" y="620.0">C</text><text class="bigmono" x="472.5" y="620.0">H</text><text class="bigmono" x="527.5" y="620.0">I</text><text class="bigmono" x="582.5" y="620.0">V</text><text class="bigmono" x="637.5" y="620.0">E</text><text class="bigmono" x="692.5" y="620.0">S</text><text class="mono" x="284.0" y="700.0">(</text><text class="mono" x="302.0" y="700.0">t</text><text class="mono" x="320.0" y="700.0">h</text><text class="mono" x="338.0" y="700.0">e</text><text class="mono" x="374.0" y="700.0">l</text><text class="mono" x="392.0" y="700.0">e</text><text class="mono" x="410.0" y="700.0">t</text><text class="mono" x="428.0" y="700.0">t</text><text class="mono" x="446.0" y="700.0">e</text><text class="mono" x="464.0" y="700.0">r</text><text class="mono" x="482.0" y="700.0">s</text><text class="mono" x="518.0" y="700.0">c</text><text class="mono" x="536.0" y="700.0">u</text><text class="mono" x="554.0" y="700.0">r</text><text class="mono" x="572.0" y="700.0">r</text><text class="mono" x="590.0" y="700.0">e</text><text class="mono" x="608.0" y="700.0">n</text><text class="mono" x="626.0" y="700.0">t</text><text class="mono" x="644.0" y="700.0">l</text><text class="mono" x="662.0" y="700.0">y</text><text class="mono" x="698.0" y="700.0">o</text><text class="mono" x="716.0" y="700.0">n</text><text class="mono" x="248.0" y="735.0">t</text><text class="mono" x="266.0" y="735.0">h</text><text class="mono" x="284.0" y="735.0">e</text><text class="mono" x="320.0" y="735.0">r</text><text class="mono" x="338.0" y="735.0">e</text><text class="mono" x="356.0" y="735.0">d</text><text class="mono" x="392.0" y="735.0">d</text><text class="mono" x="410.0" y="735.0">o</text><text class="mono" x="428.0" y="735.0">t</text><text class="mono" x="446.0" y="735.0">s</text><text class="mono" x="482.0" y="735.0">a</text><text class="mono" x="500.0" y="735.0">r</text><text class="mono" x="518.0" y="735.0">e</text><text class="mono" x="536.0" y="735.0">n</text><text class="mono" x="554.0" y="735.0">'</text><text class="mono" x="572.0" y="735.0">t</text><text class="mono" x="608.0" y="735.0">r</text><text class="mono" x="626.0" y="735.0">e</text><text class="mono" x="644.0" y="735.0">l</text><text class="mono" x="662.0" y="735.0">e</text><text class="mono" x="680.0" y="735.0">v</text><text class="mono" x="698.0" y="735.0">a</text><text class="mono" x="716.0" y="735.0">n</text><text class="mono" x="734.0" y="735.0">t</text><text class="mono" x="752.0" y="735.0">)</text><circle cx="527.0" cy="816.0254037844386" r="10" fill="#f00a"/><text class="point" fill="white" x="527.0" y="816.0254037844386">10</text><circle cx="400.0" cy="377.3502691896258" r="10" fill="black"/><text class="point" fill="black" x="400.0" y="357.3502691896258">EXAMPLE</text></g><g transform="translate(2000.0 866.0254037844386) rotate(120 500.0 577.3502691896257)"><polygon stroke="black" stroke-width="5" points="0 866.0254037844386 1000 866.0254037844386 500.0 0" fill="white"/><text class="mono" x="311.0" y="816.0254037844386">c</text><text class="mono" x="329.0" y="816.0254037844386">o</text><text class="mono" x="347.0" y="816.0254037844386">n</text><text class="mono" x="365.0" y="816.0254037844386">t</text><text class="mono" x="383.0" y="816.0254037844386">a</text><text class="mono" x="401.0" y="816.0254037844386">i</text><text class="mono" x="419.0" y="816.0254037844386">n</text><text class="mono" x="437.0" y="816.0254037844386">s</text><text class="mono" x="473.0" y="816.0254037844386">j</text><text class="mono" x="491.0" y="816.0254037844386">u</text><text class="mono" x="509.0" y="816.0254037844386">s</text><text class="mono" x="527.0" y="816.0254037844386">t</text><text class="mono" x="563.0" y="816.0254037844386">5</text><text class="mono" x="599.0" y="816.0254037844386">c</text><text class="mono" x="617.0" y="816.0254037844386">o</text><text class="mono" x="635.0" y="816.0254037844386">n</text><text class="mono" x="653.0" y="816.0254037844386">s</text><text class="mono" x="671.0" y="816.0254037844386">o</text><text class="mono" x="689.0" y="816.0254037844386">n</text><text class="mono" x="707.0" y="816.0254037844386">a</text><text class="mono" x="725.0" y="816.0254037844386">n</text><text class="mono" x="743.0" y="816.0254037844386">t</text><text class="mono" x="761.0" y="816.0254037844386">s</text><text class="mono" transform="rotate(120 432.8012701892219 216.3916142363609)" x="432.8012701892219" y="216.3916142363609">h</text><text class="mono" transform="rotate(120 423.8012701892219 231.9800715044808)" x="423.8012701892219" y="231.9800715044808">a</text><text class="mono" transform="rotate(120 414.8012701892219 247.5685287726007)" x="414.8012701892219" y="247.5685287726007">s</text><text class="mono" transform="rotate(120 396.8012701892219 278.7454433088405)" x="396.8012701892219" y="278.7454433088405">a</text><text class="mono" transform="rotate(120 387.8012701892219 294.3339005769604)" x="387.8012701892219" y="294.3339005769604">n</text><text class="mono" transform="rotate(120 369.8012701892219 325.5108151132002)" x="369.8012701892219" y="325.5108151132002">e</text><text class="mono" transform="rotate(120 360.8012701892219 341.0992723813201)" x="360.8012701892219" y="341.0992723813201">v</text><text class="mono" transform="rotate(120 351.80127018922195 356.68772964944)" x="351.80127018922195" y="356.68772964944">e</text><text class="mono" transform="rotate(120 342.80127018922195 372.27618691755987)" x="342.80127018922195" y="372.27618691755987">n</text><text class="mono" transform="rotate(120 324.80127018922195 403.45310145379966)" x="324.80127018922195" y="403.45310145379966">n</text><text class="mono" transform="rotate(120 315.80127018922195 419.04155872191956)" x="315.80127018922195" y="419.04155872191956">u</text><text class="mono" transform="rotate(120 306.80127018922195 434.63001599003945)" x="306.80127018922195" y="434.63001599003945">m</text><text class="mono" transform="rotate(120 297.80127018922195 450.21847325815935)" x="297.80127018922195" y="450.21847325815935">b</text><text class="mono" transform="rotate(120 288.80127018922195 465.80693052627925)" x="288.80127018922195" y="465.80693052627925">e</text><text class="mono" transform="rotate(120 279.80127018922195 481.39538779439914)" x="279.80127018922195" y="481.39538779439914">r</text><text class="mono" transform="rotate(120 261.80127018922195 512.5723023306389)" x="261.80127018922195" y="512.5723023306389">o</text><text class="mono" transform="rotate(120 252.80127018922195 528.1607595987589)" x="252.80127018922195" y="528.1607595987589">f</text><text class="mono" transform="rotate(120 234.80127018922198 559.3376741349987)" x="234.80127018922198" y="559.3376741349987">l</text><text class="mono" transform="rotate(120 225.80127018922198 574.9261314031185)" x="225.80127018922198" y="574.9261314031185">e</text><text class="mono" transform="rotate(120 216.80127018922198 590.5145886712385)" x="216.80127018922198" y="590.5145886712385">t</text><text class="mono" transform="rotate(120 207.80127018922198 606.1030459393583)" x="207.80127018922198" y="606.1030459393583">t</text><text class="mono" transform="rotate(120 198.801270189222 621.6915032074783)" x="198.801270189222" y="621.6915032074783">e</text><text class="mono" transform="rotate(120 189.801270189222 637.279960475598)" x="189.801270189222" y="637.279960475598">r</text><text class="mono" transform="rotate(120 180.801270189222 652.868417743718)" x="180.801270189222" y="652.868417743718">s</text><text class="mono" transform="rotate(240 810.1987298107782 637.279960475598)" x="810.1987298107782" y="637.279960475598">f</text><text class="mono" transform="rotate(240 801.1987298107782 621.6915032074781)" x="801.1987298107782" y="621.6915032074781">i</text><text class="mono" transform="rotate(240 792.1987298107782 606.1030459393583)" x="792.1987298107782" y="606.1030459393583">r</text><text class="mono" transform="rotate(240 783.1987298107781 590.5145886712384)" x="783.1987298107781" y="590.5145886712384">s</text><text class="mono" transform="rotate(240 774.1987298107781 574.9261314031185)" x="774.1987298107781" y="574.9261314031185">t</text><text class="mono" transform="rotate(240 756.1987298107781 543.7492168668787)" x="756.1987298107781" y="543.7492168668787">4</text><text class="mono" transform="rotate(240 738.1987298107781 512.5723023306389)" x="738.1987298107781" y="512.5723023306389">l</text><text class="mono" transform="rotate(240 729.1987298107781 496.98384506251904)" x="729.1987298107781" y="496.98384506251904">e</text><text class="mono" transform="rotate(240 720.1987298107781 481.39538779439914)" x="720.1987298107781" y="481.39538779439914">t</text><text class="mono" transform="rotate(240 711.1987298107781 465.80693052627925)" x="711.1987298107781" y="465.80693052627925">t</text><text class="mono" transform="rotate(240 702.1987298107781 450.21847325815935)" x="702.1987298107781" y="450.21847325815935">e</text><text class="mono" transform="rotate(240 693.1987298107781 434.63001599003945)" x="693.1987298107781" y="434.63001599003945">r</text><text class="mono" transform="rotate(240 684.1987298107781 419.04155872191956)" x="684.1987298107781" y="419.04155872191956">s</text><text class="mono" transform="rotate(240 666.1987298107781 387.8646441856798)" x="666.1987298107781" y="387.8646441856798">i</text><text class="mono" transform="rotate(240 657.1987298107781 372.2761869175599)" x="657.1987298107781" y="372.2761869175599">s</text><text class="mono" transform="rotate(240 639.1987298107781 341.09927238132013)" x="639.1987298107781" y="341.09927238132013">a</text><text class="mono" transform="rotate(240 621.198729810778 309.92235784508034)" x="621.198729810778" y="309.92235784508034">w</text><text class="mono" transform="rotate(240 612.198729810778 294.33390057696045)" x="612.198729810778" y="294.33390057696045">o</text><text class="mono" transform="rotate(240 603.198729810778 278.74544330884055)" x="603.198729810778" y="278.74544330884055">r</text><text class="mono" transform="rotate(240 594.198729810778 263.15698604072065)" x="594.198729810778" y="263.15698604072065">d</text><text class="bigmono" x="280.0" y="620.0">R</text><text class="bigmono" x="335.0" y="620.0">E</text><text class="bigmono" x="390.0" y="620.0">C</text><text class="bigmono" x="445.0" y="620.0">T</text><text class="bigmono" x="500.0" y="620.0">A</text><text class="bigmono" x="555.0" y="620.0">N</text><text class="bigmono" x="610.0" y="620.0">G</text><text class="bigmono" x="665.0" y="620.0">L</text><text class="bigmono" x="720.0" y="620.0">E</text><circle cx="671.0" cy="816.0254037844386" r="10" fill="#080a"/><text class="point" fill="white" x="671.0" y="816.0254037844386">9</text><circle cx="600.0" cy="377.3502691896258" r="10" fill="red"/><text class="point" fill="red" x="600.0" y="357.3502691896258">EXAMPLE</text></g><g transform="translate(2500.0 577.3502691896257) rotate(60 500.0 577.3502691896257)"><polygon stroke="black" stroke-width="5" points="0 866.0254037844386 1000 866.0254037844386 500.0 0" fill="white"/><text class="mono" x="311.0" y="816.0254037844386">c</text><text class="mono" x="329.0" y="816.0254037844386">o</text><text class="mono" x="347.0" y="816.0254037844386">n</text><text class="mono" x="365.0" y="816.0254037844386">t</text><text class="mono" x="383.0" y="816.0254037844386">a</text><text class="mono" x="401.0" y="816.0254037844386">i</text><text class="mono" x="419.0" y="816.0254037844386">n</text><text class="mono" x="437.0" y="816.0254037844386">s</text><text class="mono" x="473.0" y="816.0254037844386">t</text><text class="mono" x="491.0" y="816.0254037844386">h</text><text class="mono" x="509.0" y="816.0254037844386">e</text><text class="mono" x="545.0" y="816.0254037844386">l</text><text class="mono" x="563.0" y="816.0254037844386">e</text><text class="mono" x="581.0" y="816.0254037844386">t</text><text class="mono" x="599.0" y="816.0254037844386">t</text><text class="mono" x="617.0" y="816.0254037844386">e</text><text class="mono" x="635.0" y="816.0254037844386">r</text><text class="mono" x="671.0" y="816.0254037844386">A</text><text class="mono" transform="rotate(120 432.8012701892219 216.3916142363609)" x="432.8012701892219" y="216.3916142363609">s</text><text class="mono" transform="rotate(120 423.8012701892219 231.9800715044808)" x="423.8012701892219" y="231.9800715044808">u</text><text class="mono" transform="rotate(120 414.8012701892219 247.5685287726007)" x="414.8012701892219" y="247.5685287726007">m</text><text class="mono" transform="rotate(120 396.8012701892219 278.7454433088405)" x="396.8012701892219" y="278.7454433088405">o</text><text class="mono" transform="rotate(120 387.8012701892219 294.3339005769604)" x="387.8012701892219" y="294.3339005769604">f</text><text class="mono" transform="rotate(120 369.8012701892219 325.5108151132002)" x="369.8012701892219" y="325.5108151132002">l</text><text class="mono" transform="rotate(120 360.8012701892219 341.0992723813201)" x="360.8012701892219" y="341.0992723813201">e</text><text class="mono" transform="rotate(120 351.80127018922195 356.68772964944)" x="351.80127018922195" y="356.68772964944">t</text><text class="mono" transform="rotate(120 342.80127018922195 372.27618691755987)" x="342.80127018922195" y="372.27618691755987">t</text><text class="mono" transform="rotate(120 333.80127018922195 387.86464418567977)" x="333.80127018922195" y="387.86464418567977">e</text><text class="mono" transform="rotate(120 324.80127018922195 403.45310145379966)" x="324.80127018922195" y="403.45310145379966">r</text><text class="mono" transform="rotate(120 315.80127018922195 419.04155872191956)" x="315.80127018922195" y="419.04155872191956">s</text><text class="mono" transform="rotate(120 297.80127018922195 450.21847325815935)" x="297.80127018922195" y="450.21847325815935">(</text><text class="mono" transform="rotate(120 288.80127018922195 465.80693052627925)" x="288.80127018922195" y="465.80693052627925">A</text><text class="mono" transform="rotate(120 279.80127018922195 481.39538779439914)" x="279.80127018922195" y="481.39538779439914">=</text><text class="mono" transform="rotate(120 270.80127018922195 496.98384506251904)" x="270.80127018922195" y="496.98384506251904">1</text><text class="mono" transform="rotate(120 261.80127018922195 512.5723023306389)" x="261.80127018922195" y="512.5723023306389">,</text><text class="mono" transform="rotate(120 243.80127018922198 543.7492168668787)" x="243.80127018922198" y="543.7492168668787">Z</text><text class="mono" transform="rotate(120 234.80127018922198 559.3376741349987)" x="234.80127018922198" y="559.3376741349987">=</text><text class="mono" transform="rotate(120 225.80127018922198 574.9261314031185)" x="225.80127018922198" y="574.9261314031185">2</text><text class="mono" transform="rotate(120 216.80127018922198 590.5145886712385)" x="216.80127018922198" y="590.5145886712385">6</text><text class="mono" transform="rotate(120 207.80127018922198 606.1030459393583)" x="207.80127018922198" y="606.1030459393583">)</text><text class="mono" transform="rotate(120 189.801270189222 637.279960475598)" x="189.801270189222" y="637.279960475598">i</text><text class="mono" transform="rotate(120 180.801270189222 652.868417743718)" x="180.801270189222" y="652.868417743718">s</text><text class="mono" transform="rotate(120 162.801270189222 684.0453322799578)" x="162.801270189222" y="684.0453322799578">e</text><text class="mono" transform="rotate(120 153.801270189222 699.6337895480776)" x="153.801270189222" y="699.6337895480776">v</text><text class="mono" transform="rotate(120 144.801270189222 715.2222468161976)" x="144.801270189222" y="715.2222468161976">e</text><text class="mono" transform="rotate(120 135.801270189222 730.8107040843174)" x="135.801270189222" y="730.8107040843174">n</text><text class="mono" transform="rotate(240 801.1987298107782 621.6915032074781)" x="801.1987298107782" y="621.6915032074781">i</text><text class="mono" transform="rotate(240 792.1987298107782 606.1030459393583)" x="792.1987298107782" y="606.1030459393583">s</text><text class="mono" transform="rotate(240 774.1987298107781 574.9261314031185)" x="774.1987298107781" y="574.9261314031185">j</text><text class="mono" transform="rotate(240 765.1987298107781 559.3376741349986)" x="765.1987298107781" y="559.3376741349986">u</text><text class="mono" transform="rotate(240 756.1987298107781 543.7492168668787)" x="756.1987298107781" y="543.7492168668787">s</text><text class="mono" transform="rotate(240 747.1987298107781 528.1607595987588)" x="747.1987298107781" y="528.1607595987588">t</text><text class="mono" transform="rotate(240 729.1987298107781 496.98384506251904)" x="729.1987298107781" y="496.98384506251904">6</text><text class="mono" transform="rotate(240 711.1987298107781 465.80693052627925)" x="711.1987298107781" y="465.80693052627925">l</text><text class="mono" transform="rotate(240 702.1987298107781 450.21847325815935)" x="702.1987298107781" y="450.21847325815935">e</text><text class="mono" transform="rotate(240 693.1987298107781 434.63001599003945)" x="693.1987298107781" y="434.63001599003945">t</text><text class="mono" transform="rotate(240 684.1987298107781 419.04155872191956)" x="684.1987298107781" y="419.04155872191956">t</text><text class="mono" transform="rotate(240 675.1987298107781 403.45310145379966)" x="675.1987298107781" y="403.45310145379966">e</text><text class="mono" transform="rotate(240 666.1987298107781 387.8646441856798)" x="666.1987298107781" y="387.8646441856798">r</text><text class="mono" transform="rotate(240 657.1987298107781 372.2761869175599)" x="657.1987298107781" y="372.2761869175599">s</text><text class="mono" transform="rotate(240 639.1987298107781 341.09927238132013)" x="639.1987298107781" y="341.09927238132013">l</text><text class="mono" transform="rotate(240 630.1987298107781 325.51081511320024)" x="630.1987298107781" y="325.51081511320024">o</text><text class="mono" transform="rotate(240 621.198729810778 309.92235784508034)" x="621.198729810778" y="309.92235784508034">n</text><text class="mono" transform="rotate(240 612.198729810778 294.33390057696045)" x="612.198729810778" y="294.33390057696045">g</text><text class="bigmono" x="417.5" y="620.0">R</text><text class="bigmono" x="472.5" y="620.0">O</text><text class="bigmono" x="527.5" y="620.0">O</text><text class="bigmono" x="582.5" y="620.0">K</text><circle cx="401.0" cy="816.0254037844386" r="10" fill="#080a"/><text class="point" fill="white" x="401.0" y="816.0254037844386">3</text><circle cx="599.0" cy="816.0254037844386" r="10" fill="#f00a"/><text class="point" fill="white" x="599.0" y="816.0254037844386">4</text><circle cx="792.1987298107782" cy="606.1030459393583" r="10" fill="#f00a"/><text class="point" fill="white" x="792.1987298107782" y="606.1030459393583">6</text></g><g transform="translate(1000.0 1443.3756729740644) rotate(180 500.0 577.3502691896257)"><polygon stroke="black" stroke-width="5" points="0 866.0254037844386 1000 866.0254037844386 500.0 0" fill="white"/><text class="mono" x="203.0" y="816.0254037844386">c</text><text class="mono" x="221.0" y="816.0254037844386">o</text><text class="mono" x="239.0" y="816.0254037844386">n</text><text class="mono" x="257.0" y="816.0254037844386">t</text><text class="mono" x="275.0" y="816.0254037844386">a</text><text class="mono" x="293.0" y="816.0254037844386">i</text><text class="mono" x="311.0" y="816.0254037844386">n</text><text class="mono" x="329.0" y="816.0254037844386">s</text><text class="mono" x="365.0" y="816.0254037844386">1</text><text class="mono" x="401.0" y="816.0254037844386">d</text><text class="mono" x="419.0" y="816.0254037844386">i</text><text class="mono" x="437.0" y="816.0254037844386">s</text><text class="mono" x="455.0" y="816.0254037844386">t</text><text class="mono" x="473.0" y="816.0254037844386">i</text><text class="mono" x="491.0" y="816.0254037844386">n</text><text class="mono" x="509.0" y="816.0254037844386">c</text><text class="mono" x="527.0" y="816.0254037844386">t</text><text class="mono" x="563.0" y="816.0254037844386">v</text><text class="mono" x="581.0" y="816.0254037844386">o</text><text class="mono" x="599.0" y="816.0254037844386">w</text><text class="mono" x="617.0" y="816.0254037844386">e</text><text class="mono" x="635.0" y="816.0254037844386">l</text><text class="mono" x="653.0" y="816.0254037844386">,</text><text class="mono" x="689.0" y="816.0254037844386">u</text><text class="mono" x="707.0" y="816.0254037844386">s</text><text class="mono" x="725.0" y="816.0254037844386">e</text><text class="mono" x="743.0" y="816.0254037844386">d</text><text class="mono" x="779.0" y="816.0254037844386">t</text><text class="mono" x="797.0" y="816.0254037844386">w</text><text class="mono" x="815.0" y="816.0254037844386">i</text><text class="mono" x="833.0" y="816.0254037844386">c</text><text class="mono" x="851.0" y="816.0254037844386">e</text><text class="mono" transform="rotate(120 441.8012701892219 200.803156968241)" x="441.8012701892219" y="200.803156968241">n</text><text class="mono" transform="rotate(120 432.8012701892219 216.3916142363609)" x="432.8012701892219" y="216.3916142363609">u</text><text class="mono" transform="rotate(120 423.8012701892219 231.9800715044808)" x="423.8012701892219" y="231.9800715044808">m</text><text class="mono" transform="rotate(120 414.8012701892219 247.5685287726007)" x="414.8012701892219" y="247.5685287726007">b</text><text class="mono" transform="rotate(120 405.8012701892219 263.1569860407206)" x="405.8012701892219" y="263.1569860407206">e</text><text class="mono" transform="rotate(120 396.8012701892219 278.7454433088405)" x="396.8012701892219" y="278.7454433088405">r</text><text class="mono" transform="rotate(120 378.8012701892219 309.9223578450803)" x="378.8012701892219" y="309.9223578450803">o</text><text class="mono" transform="rotate(120 369.8012701892219 325.5108151132002)" x="369.8012701892219" y="325.5108151132002">f</text><text class="mono" transform="rotate(120 351.80127018922195 356.68772964944)" x="351.80127018922195" y="356.68772964944">l</text><text class="mono" transform="rotate(120 342.80127018922195 372.27618691755987)" x="342.80127018922195" y="372.27618691755987">e</text><text class="mono" transform="rotate(120 333.80127018922195 387.86464418567977)" x="333.80127018922195" y="387.86464418567977">t</text><text class="mono" transform="rotate(120 324.80127018922195 403.45310145379966)" x="324.80127018922195" y="403.45310145379966">t</text><text class="mono" transform="rotate(120 315.80127018922195 419.04155872191956)" x="315.80127018922195" y="419.04155872191956">e</text><text class="mono" transform="rotate(120 306.80127018922195 434.63001599003945)" x="306.80127018922195" y="434.63001599003945">r</text><text class="mono" transform="rotate(120 297.80127018922195 450.21847325815935)" x="297.80127018922195" y="450.21847325815935">s</text><text class="mono" transform="rotate(120 279.80127018922195 481.39538779439914)" x="279.80127018922195" y="481.39538779439914">i</text><text class="mono" transform="rotate(120 270.80127018922195 496.98384506251904)" x="270.80127018922195" y="496.98384506251904">s</text><text class="mono" transform="rotate(120 252.80127018922195 528.1607595987589)" x="252.80127018922195" y="528.1607595987589">a</text><text class="mono" transform="rotate(120 234.80127018922198 559.3376741349987)" x="234.80127018922198" y="559.3376741349987">p</text><text class="mono" transform="rotate(120 225.80127018922198 574.9261314031185)" x="225.80127018922198" y="574.9261314031185">e</text><text class="mono" transform="rotate(120 216.80127018922198 590.5145886712385)" x="216.80127018922198" y="590.5145886712385">r</text><text class="mono" transform="rotate(120 207.80127018922198 606.1030459393583)" x="207.80127018922198" y="606.1030459393583">f</text><text class="mono" transform="rotate(120 198.801270189222 621.6915032074783)" x="198.801270189222" y="621.6915032074783">e</text><text class="mono" transform="rotate(120 189.801270189222 637.279960475598)" x="189.801270189222" y="637.279960475598">c</text><text class="mono" transform="rotate(120 180.801270189222 652.868417743718)" x="180.801270189222" y="652.868417743718">t</text><text class="mono" transform="rotate(120 162.801270189222 684.0453322799578)" x="162.801270189222" y="684.0453322799578">s</text><text class="mono" transform="rotate(120 153.801270189222 699.6337895480776)" x="153.801270189222" y="699.6337895480776">q</text><text class="mono" transform="rotate(120 144.801270189222 715.2222468161976)" x="144.801270189222" y="715.2222468161976">u</text><text class="mono" transform="rotate(120 135.801270189222 730.8107040843174)" x="135.801270189222" y="730.8107040843174">a</text><text class="mono" transform="rotate(120 126.80127018922201 746.3991613524374)" x="126.80127018922201" y="746.3991613524374">r</text><text class="mono" transform="rotate(120 117.80127018922201 761.9876186205572)" x="117.80127018922201" y="761.9876186205572">e</text><text class="mono" transform="rotate(240 747.1987298107781 528.1607595987588)" x="747.1987298107781" y="528.1607595987588">i</text><text class="mono" transform="rotate(240 738.1987298107781 512.5723023306389)" x="738.1987298107781" y="512.5723023306389">s</text><text class="mono" transform="rotate(240 720.1987298107781 481.39538779439914)" x="720.1987298107781" y="481.39538779439914">a</text><text class="mono" transform="rotate(240 702.1987298107781 450.21847325815935)" x="702.1987298107781" y="450.21847325815935">s</text><text class="mono" transform="rotate(240 693.1987298107781 434.63001599003945)" x="693.1987298107781" y="434.63001599003945">h</text><text class="mono" transform="rotate(240 684.1987298107781 419.04155872191956)" x="684.1987298107781" y="419.04155872191956">a</text><text class="mono" transform="rotate(240 675.1987298107781 403.45310145379966)" x="675.1987298107781" y="403.45310145379966">p</text><text class="mono" transform="rotate(240 666.1987298107781 387.8646441856798)" x="666.1987298107781" y="387.8646441856798">e</text><text class="bigmono" x="417.5" y="620.0">C</text><text class="bigmono" x="472.5" y="620.0">L</text><text class="bigmono" x="527.5" y="620.0">U</text><text class="bigmono" x="582.5" y="620.0">E</text><circle cx="423.8012701892219" cy="231.9800715044808" r="10" fill="#080a"/><text class="point" fill="white" x="423.8012701892219" y="231.9800715044808">1</text><circle cx="630.198729810778" cy="325.51081511320024" r="10" fill="#f00a"/><text class="point" fill="white" x="630.198729810778" y="325.51081511320024">12</text></g></svg>
