<svg xmlns="http://www.w3.org/2000/svg" xml:space="preserve" width="512" height="512" viewBox="0 0 128 128"><g style="display:inline"><ellipse cx="69.66" cy="60.43" rx="52.593" ry="50.329" style="fill:#fff;stroke-width:.25"/><path d="M78.243 112.601c-4.745-.42-9.428-1.305-13.857-3.085 9.668-5.258 11.315-15.924 16.349-25.116 6.514-6.722 10.877 1.619 12.93 14.986.787 4.265-6.912 16.376-15.422 13.215m-15.095-3.356c-3.656.42-7.2-7.79-2.904-5.925 2.723-.47 2.255-6.32 4.18-5.208-.2 2.497-1.397 8.03-1.276 11.133m-13.286-3.509c-6.077-.442-11.137-6.597-12.195-12.158-.117-4.524-6.023-4.518-8.241-6.1 5.127-.814 6.983-7.563 8.97-11.332.444-3.268 2.932-7.351 6.15-3.638 1.892.977 3.624 3.131 5.965 2.463 4.153-1.096 8.338 2.498 7.328 6.847-.533 4.696-3.046 9.12-2.904 13.965.253 1.854 1.63 4.245 2.368 6.716 2.87 4.022-5.371 3.6-7.44 3.237m8.061-3.794c-2.848-3.445-1.14-9.242.34-13.177 2.009-4.336 3.409-10.057-.46-13.861-2.609-3.626-11.157.334-12.615-3.917 3.519-1.086 9.643-1.547 13.573-2.212 4.383-.803 10.892-3.521 9.644 3.086-1.129 6.934-2.248 17.255-3.892 25.82-1.384.71-4.981 4.318-6.59 4.26m-31.849-16.8c-4.941-3.142-7.265-10.95-4.99-16-2.586-3.342-1.775-9.706-.027-12.999 3.096 4.018 6.639 9.34 8.514 14.145.617 4.698-1.6 10.67-1.798 15.366-.38.758-1.243-.434-1.699-.512m55.31-3.343c1.366-5.379 4.889.277 1.057.92-1.822.974-1.484.229-1.058-.92m1.167-2.418c.473-2.252 3.631-9.83 5.923-14.642 1.248-.678 4.367-2 5.04-2.118 2.149-.38-1.743 2.455-2.968 8.79-.88 3.093-6.528 8.846-7.995 7.97m-46.01-16.57c-2.843-2.521-5.34-4.177-8.391-6.434-3.159-2.672-6.229-1.822-6.229-1.822 1.562-3.412 4.439-4.94 5.758-8.496 3.796-2.865 1.486-7.015 2.425-10.459 1.773-4.919 9.97-3.287 11.95.177 2.624 2.798 5.935-.584 9.253.173 1.74 1.647 4.413 3.418 5.414 5.972-.3 5.216 4.293 10.558 5.308 14.358-5.07 2.61-7.843.614-10.784 3.335-3.56 2.335-7.71 3.316-11.578 5.035-1.228.338-2.187-1.253-3.126-1.838m26.032-9.337c-2.148-2.49-4.511-6.566-3.855-9.176.94.367 3.155 5.01 4.298 6.539.485.81 2.382 5.005-.443 2.637M77.046 42.72c-8.483-6.891-16.565-14.55-25.16-21.293-1.69-1.19-5.652-1.379-7.255-1.384 2.574-2.348 6.03-5.214 9.427-6.044 4.03-1.924 8.425-3.207 12.636-3.613 2.221-.407 5.305-2.36 7.52-1.221 3.57.902 5.627 4.078 8.975 5.094 4.226 1.461 10.673 3.918 11.12 9.257 2.27 5.2-6.705 6.034-9.486 3.793-1.731-.535-5.704-2.867-5.226.446-1.276 4.313-.923 6.616 3.17 8.58 2.073 2.602 2.974 10.478-.41 11.098zM37.962 32.1c-3.713-3.274 1.859-7.461 4.566-9.463 1.757 1.847 7.261 8.503 8.249 10.767-3.439-.005-9.389-.408-12.815-1.305" style="display:inline;fill:#96b356"/><path d="M62.064 125.234c-5.98-.918-11.78-2.68-17.176-5.38-6.327-.656-10.694-5.428-16.282-7.87-4.708-4.568-8.552-10.028-12.846-14.957-3.21-6.408-6.758-12.771-8.195-19.897-1.618-5.193-4.07-10.434-3.243-15.994-.352-6.3 2.896-11.854 3.84-17.938 1.404-6.389 5.486-11.58 10.112-16.003 3.46-5.169 7.398-10.358 13.05-13.288C36.33 9.62 42.642 7.09 49.211 6.487c6.017-1.884 12.174-2.964 18.421-4.055C73.345 1.378 78.37 5.053 83.79 6.15c5.7 3.333 12.682 4.378 17.869 8.582 5.229 3.61 9.71 8.385 13.822 13.205 3.516 6.418 5.722 13.537 7.8 20.537 1.682 8.198 2.367 16.597 2.732 24.945-1.077 9.044-3.747 18.114-9.467 25.384-2.506 4.883-6.57 8.583-11.38 11.198-9.11 6.995-19.48 12.917-31.02 14.525-3.948.99-8.044 1.374-12.083.708m28.242-35.605c-1.506-4.84-5.087-9.228-9.866-5.055-.105-2.425 5.872-3.383 1.812-5 7.165-2.98 6.254-8.162 8.798-13.084 1.168-1.679 1.796-2.457 2.949-4.048 2.124-.74 5.62-2.325 9.646-3.724 4.86-.668 11.58-4.74 10.78-8.17s-7.696-2.562-13.467-1.347c-5.528 1.033-8.155 1.56-14.345 1.06-1.378-1.122-7.133-2.664-5.03-6.987 2.25-3.998-.094-7.298-2.923-10.417-2.63-4.57-1.021-11.04 5.215-7.14 4.796 2.227 13.301.434 8.251-5.307-2.593-5.07-9.897-4.194-13.697-7.932-3.582-5.643-10.304-2.092-15.237-.885-5.277 2.203-11.253 3.319-15.743 6.954-1.84 2.718-7.583.684-4.538 4.623-3.152 2.398-9.937 9.566-1.538 8.986 2.906-.037 8.17-.198 9.236.701 1.77 2.108 6.943 9.788 1.978 4.416-2.907-2.148-7.952 2.09-10.694-.834-2.414-5.452-14.142-4.879-10.346 2.828 1.246 6.411-6.133 10.58-9.377 15.331-1.685 3.71-.71 22.946 2 26.75 3.675 2.558 3.494 7.043 8.664 6.261 8.325.759 5.189 12.58 12.424 15.407 4.623 2.92 15.333 2.73 9.629-4.847-.328-6.11 1.227-11.845 1.722-17.763-.825-7.829-10.412-2.721-14.854-8.421-1.691-1.32 3.7-1.746 7.238.305 8.221-1.12 14.336 5.58 10.792 13.297-1.702 4.968-2.579 11.39-.966 15.044.576.125 1.615.185 2.457-.47 1.215-.944 2.646-3.223 3.337-2.855.32.172-.55 2.046-1.103 2.766-.906 1.275-1.113 3.46-2.504 3.779-.918.06-1.346-.607-1.952.264.152 6.55 9.158 5.555 13.9 7.388 15.337 1.87 21.05-5.105 17.352-21.874m-8.92 11.832c-1.06-3.71-5.078-6.48 1.336-3.883.971.513 1.375 5.402-1.337 3.883M48.981 60.808c2.344-3.51 14.749-4.673 8.054-2.353-1.338.453-5.967 1.674-8.054 2.353m12.329-4.825c-2.522-3.606-5.853-9.15-4.59-14.289 5.186 4.982 2.958 10.703 7.208 11.815 2.087 2.28-1.264 3.472-2.618 2.474m-13.98-1.551c-3.216-2.357-8.249-7.567-1.363-7.48 3.406.765 4.118 8.873 1.363 7.48" style="display:inline;fill:#163262"/></g></svg>